<svg width="376" height="133" viewBox="0 0 376 133" fill="none" xmlns="http://www.w3.org/2000/svg">
<path d="M24.7867 37.4456C30.5062 15.3963 50.4059 0 73.1849 0H346.195C361.743 0 373.519 14.0399 370.814 29.3499L359.797 91.6998C355.577 115.588 334.818 133 310.56 133H6.46247C3.19139 133 0.80132 129.911 1.62265 126.745L24.7867 37.4456Z" fill="#1B1B1B"/>
<mask id="mask0_161_91" style="mask-type:alpha" maskUnits="userSpaceOnUse" x="1" y="0" width="371" height="133">
<path d="M24.7867 37.4456C30.5062 15.3963 50.4059 0 73.1849 0H346.195C361.743 0 373.519 14.0399 370.814 29.3499L359.797 91.6998C355.577 115.588 334.818 133 310.56 133H6.46247C3.19139 133 0.80132 129.911 1.62265 126.745L24.7867 37.4456Z" fill="black"/>
</mask>
<g mask="url(#mask0_161_91)">
<rect x="193" y="139.5" width="211" height="106" transform="rotate(-30 193 139.5)" fill="#95B4FF"/>
<rect x="158.436" y="145.795" width="257.377" height="8.88854" transform="rotate(-30 158.436 145.795)" fill="#95B4FF"/>
</g>
</svg>
