<svg width="34" height="27" viewBox="0 0 34 27" fill="none" xmlns="http://www.w3.org/2000/svg">
<path d="M3.16406 0C1.41724 0 0 1.51172 0 3.375C0 4.43672 0.468018 5.43516 1.26563 6.075L15.6094 17.55C16.3608 18.1477 17.3892 18.1477 18.1406 17.55L32.4844 6.075C33.282 5.43516 33.75 4.43672 33.75 3.375C33.75 1.51172 32.3328 0 30.5859 0H3.16406ZM0 7.875V22.5C0 24.982 1.89185 27 4.21875 27H29.5312C31.8582 27 33.75 24.982 33.75 22.5V7.875L19.4062 19.35C17.9033 20.5523 15.8467 20.5523 14.3438 19.35L0 7.875Z" fill="#F8F8F8"/>
</svg>
