<svg width="10" height="12" viewBox="0 0 10 12" fill="none" xmlns="http://www.w3.org/2000/svg">
<path d="M2.625 0C2.00391 0 1.5 0.503906 1.5 1.125V2.25V2.91797V4.125C1.5 4.33125 1.33125 4.5 1.125 4.5C0.91875 4.5 0.75 4.33125 0.75 4.125V3.49922L0.539062 3.675C0.196875 3.96094 0 4.38281 0 4.82812V5.71875C0 6.60938 0.396094 7.45312 1.08047 8.02266L2.25 9V11.25C2.25 11.6648 2.58516 12 3 12H6.75C7.16484 12 7.5 11.6648 7.5 11.25V8.78203C8.59922 8.33672 9.375 7.25859 9.375 6V4.125V3.75V3.375C9.375 2.75391 8.87109 2.25 8.25 2.25C7.95937 2.25 7.69687 2.36016 7.49766 2.53828C7.45312 1.95703 6.96797 1.5 6.375 1.5C6.08437 1.5 5.82187 1.61016 5.62266 1.78828C5.57812 1.20703 5.09297 0.75 4.5 0.75C4.20937 0.75 3.94687 0.860156 3.74766 1.03828C3.70312 0.457031 3.21797 0 2.625 0Z" fill="#E3E3E3"/>
</svg>
